<?xml version="1.0" standalone="no"?>
<!DOCTYPE svg PUBLIC "-//W3C//DTD SVG 20010904//EN"
 "http://www.w3.org/TR/2001/REC-SVG-20010904/DTD/svg10.dtd">
<svg version="1.0" xmlns="http://www.w3.org/2000/svg"
 width="512.000000pt" height="512.000000pt" viewBox="0 0 512.000000 512.000000"
 preserveAspectRatio="xMidYMid meet">
<metadata>
Created by potrace 1.11, written by Peter Selinger 2001-2013
</metadata>
<g transform="translate(0.000000,512.000000) scale(0.100000,-0.100000)"
fill="#000000" stroke="none">
<path d="M3040 5104 c-184 -49 -331 -201 -369 -382 -7 -35 -11 -243 -11 -612
l0 -559 -822 -3 -823 -3 -65 -23 c-175 -63 -309 -194 -374 -363 -10 -26 -25
-93 -35 -150 l-17 -104 -154 -5 c-134 -5 -161 -9 -196 -27 -63 -34 -97 -66
-129 -125 -27 -47 -30 -62 -30 -138 0 -68 5 -93 22 -126 36 -67 70 -101 135
-133 56 -28 70 -31 161 -31 l100 0 -7 -42 c-4 -23 -8 -43 -9 -43 -1 -1 -33
-19 -72 -40 -145 -79 -275 -247 -321 -415 -25 -92 -25 -338 0 -430 17 -63 60
-159 90 -202 14 -20 13 -24 -25 -65 -58 -63 -82 -123 -83 -208 0 -58 5 -81 27
-127 51 -105 138 -160 273 -174 l64 -7 0 -116 c0 -126 16 -212 51 -268 l21
-33 -197 0 c-195 0 -196 0 -220 -25 -32 -31 -32 -69 0 -100 l24 -25 2511 0
2511 0 24 25 c32 31 32 69 0 100 l-24 25 -556 0 -555 0 2 1252 3 1253 265 3
c255 2 265 3 287 24 31 29 31 77 0 106 -23 22 -26 22 -431 22 l-407 0 -32 24
c-75 56 -93 61 -257 66 l-154 5 -18 106 c-9 58 -26 129 -38 158 -53 136 -164
257 -291 318 l-78 38 -1 560 c0 474 2 570 15 620 27 104 91 179 195 229 l65
31 775 3 c500 2 791 -1 822 -7 115 -25 200 -93 252 -201 l31 -65 3 -779 c3
-866 4 -854 -63 -952 -37 -54 -96 -102 -157 -127 -20 -8 -41 -24 -47 -35 -29
-54 3 -112 62 -112 85 0 244 128 299 242 59 121 58 103 58 949 0 483 -4 797
-10 830 -14 74 -69 184 -119 241 -50 57 -132 112 -209 141 -57 22 -60 22 -872
24 -692 2 -823 0 -870 -13z m-350 -2022 c61 -32 73 -73 129 -437 28 -181 51
-338 51 -347 0 -11 -8 -18 -19 -18 -14 0 -21 12 -30 58 -33 170 -162 316 -328
371 -83 28 -207 28 -296 1 -164 -51 -297 -197 -331 -364 l-13 -61 -481 -3
-482 -2 0 24 c0 28 98 661 107 691 10 35 41 72 75 88 30 15 115 17 808 17 730
0 777 -1 810 -18z m1120 -1677 l0 -1255 -260 0 -260 0 24 49 c31 61 46 148 46
272 l0 96 83 7 c62 5 97 14 144 37 70 34 106 71 141 147 20 45 23 65 20 130
-4 87 -22 131 -77 194 l-37 41 43 86 c66 130 75 183 71 379 -5 189 -19 247
-85 362 -49 84 -161 196 -241 240 -83 46 -92 55 -92 95 l0 33 108 4 c86 3 115
8 149 26 96 50 152 137 161 249 5 61 5 63 33 63 l29 0 0 -1255z m-1346 1154
c100 -37 190 -142 211 -246 l7 -33 -338 0 -337 0 6 36 c18 110 119 219 237
255 51 15 158 10 214 -12z m-1749 -744 c25 -24 25 -27 25 -198 l0 -174 -26
-27 c-19 -19 -37 -26 -63 -26 -79 1 -91 32 -91 225 0 201 9 222 93 224 28 1
45 -6 62 -24z m2459 -6 c26 -30 26 -33 26 -194 0 -161 0 -164 -26 -194 -34
-41 -92 -44 -129 -6 -25 24 -25 27 -25 200 0 173 0 176 25 200 37 38 95 35
129 -6z m354 -804 c97 -58 97 -202 0 -260 -32 -20 -53 -20 -1035 -23 l-1002
-2 -20 -27 c-27 -34 -26 -56 3 -90 l24 -28 565 -3 564 -2 5 -143 c4 -135 6
-146 36 -210 l31 -67 -835 0 c-460 0 -834 3 -832 8 53 102 53 102 56 260 l3
152 63 0 c73 0 122 15 136 40 16 29 12 68 -8 88 -18 18 -52 19 -522 26 -540 7
-541 7 -575 60 -41 62 -38 139 8 191 49 57 -35 54 1702 52 1580 -2 1600 -2
1633 -22z"/>
<path d="M3478 4826 c-98 -26 -176 -109 -198 -209 -8 -36 -10 -272 -8 -783 l3
-731 30 -49 c19 -30 49 -60 79 -79 48 -29 54 -30 165 -30 132 0 175 15 229 80
43 53 52 97 52 249 l0 136 113 0 c225 1 396 65 538 204 136 131 208 290 216
476 6 136 -12 226 -71 346 -105 211 -313 360 -550 393 -109 15 -538 13 -598
-3z m646 -161 c157 -41 296 -154 364 -296 108 -225 70 -460 -103 -635 -128
-130 -256 -174 -506 -174 -133 0 -149 -2 -173 -21 l-26 -20 0 -179 c0 -112 -4
-188 -11 -204 -16 -35 -58 -49 -134 -44 -51 3 -70 9 -88 26 l-22 23 -3 692
c-2 380 0 712 3 736 5 32 16 54 40 78 l33 33 284 0 c222 0 297 -3 342 -15z"/>
<path d="M3706 4406 l-26 -25 0 -254 c0 -242 1 -256 21 -281 l20 -26 159 0
c135 0 167 3 213 20 205 77 265 338 113 493 -21 20 -61 49 -89 64 -49 26 -61
28 -219 31 l-167 4 -25 -26z m344 -148 c113 -57 121 -185 17 -262 -24 -17 -46
-22 -133 -24 l-104 -4 0 156 0 156 88 0 c71 0 96 -4 132 -22z"/>
</g>
</svg>
